<?xml version="1.0" encoding="UTF-8" standalone="no"?>
<svg
   xmlns:dc="http://purl.org/dc/elements/1.1/"
   xmlns:cc="http://creativecommons.org/ns#"
   xmlns:rdf="http://www.w3.org/1999/02/22-rdf-syntax-ns#"
   xmlns:svg="http://www.w3.org/2000/svg"
   xmlns="http://www.w3.org/2000/svg"
   xmlns:sodipodi="http://sodipodi.sourceforge.net/DTD/sodipodi-0.dtd"
   xmlns:inkscape="http://www.inkscape.org/namespaces/inkscape"
   width="500mm"
   height="500mm"
   viewBox="0 0 500 500.00002"
   version="1.1"
   id="svg8"
   inkscape:export-filename="C:\Users\gdemeyer\crystal_path_logo.png"
   inkscape:export-xdpi="25.4"
   inkscape:export-ydpi="25.4"
   inkscape:version="1.0.1 (3bc2e813f5, 2020-09-07)"
   sodipodi:docname="crystal_path_logo.svg">
  <defs
     id="defs2" />
  <sodipodi:namedview
     id="base"
     pagecolor="#000000"
     bordercolor="#666666"
     borderopacity="1.0"
     inkscape:pageopacity="0"
     inkscape:pageshadow="2"
     inkscape:zoom="0.24748737"
     inkscape:cx="745.14078"
     inkscape:cy="744.88089"
     inkscape:document-units="px"
     inkscape:current-layer="g908"
     inkscape:document-rotation="0"
     showgrid="false"
     inkscape:window-width="1267"
     inkscape:window-height="967"
     inkscape:window-x="30"
     inkscape:window-y="9"
     inkscape:window-maximized="0" />
  <metadata
     id="metadata5">
    <rdf:RDF>
      <cc:Work
         rdf:about="">
        <dc:format>image/svg+xml</dc:format>
        <dc:type
           rdf:resource="http://purl.org/dc/dcmitype/StillImage" />
        <dc:title></dc:title>
      </cc:Work>
    </rdf:RDF>
  </metadata>
  <g
     inkscape:label="Layer 1"
     inkscape:groupmode="layer"
     id="layer1">
    <g
       id="g908"
       transform="translate(37.306453,-16.61168)">
      <path
         style="fill:none;stroke:#ffffff;stroke-width:2.50025px;stroke-linecap:butt;stroke-linejoin:miter;stroke-opacity:1"
         d="m 73.884268,391.53311 c 33.693732,14.68637 63.964142,37.9311 90.922892,69.45497 12.04732,-8.99968 23.15624,-18.93772 41.67298,-21.46799 -10.08056,-58.18073 -36.39109,-118.16474 40.41017,-166.69191 l 27.782,21.46789 c 11.42391,26.45618 23.84914,54.71477 18.94229,51.77554 12.20724,3.87977 24.41447,5.79977 36.62172,6.31412 12.62817,-8.4188 18.52133,-15.15384 17.67945,-20.20512 -12.85138,0.59515 -11.4696,-36.76469 -15.15382,-60.61526 l 13.89099,-16.41663 70.71781,45.46143 -90.9229,-98.49979 -18.94225,-15.15381 h -20.20509 c -2.59237,-5.46928 13.33142,4.93244 -32.83328,-37.88455 C 236.69791,128.06997 237.14496,97.959758 231.73651,70.777292 232.32939,115.63927 219.74818,163.42883 248.15314,202.11036 122.07356,228.98997 102.26605,312.54801 73.884268,391.53311 Z"
         id="path863"
         sodipodi:nodetypes="cccccccccccccccccc" />
      <path
         style="fill:none;stroke:#ffffff;stroke-width:2.50025px;stroke-linecap:butt;stroke-linejoin:miter;stroke-opacity:1"
         d="m 246.89031,272.82818 c -1.28451,-23.08791 2.79808,-35.21346 10.10255,-46.72429 v 0"
         id="path865"
         sodipodi:nodetypes="ccc" />
      <path
         style="fill:none;stroke:#ffffff;stroke-width:2.50025px;stroke-linecap:butt;stroke-linejoin:miter;stroke-opacity:1"
         d="m 346.65294,255.1487 -42.9358,-37.88452 c 0.77545,-14.57334 10.10457,-17.17148 22.73071,-15.15382"
         id="path867"
         sodipodi:nodetypes="ccc" />
      <path
         style="fill:none;stroke:#ffffff;stroke-width:2.50025px;stroke-linecap:butt;stroke-linejoin:miter;stroke-opacity:1"
         d="m 248.15314,202.11036 c 27.38041,26.62842 33.97651,7.31256 39.14737,-15.15381 v 0"
         id="path869"
         sodipodi:nodetypes="ccc" />
      <path
         style="fill:none;stroke:#ffffff;stroke-width:2.50025px;stroke-linecap:butt;stroke-linejoin:miter;stroke-opacity:1"
         d="m 326.44785,202.11036 c 31.85769,-35.84184 45.39472,-70.5312 64.96248,-82.85028 -15.70106,34.45257 -25.57594,91.37755 -48.66561,97.33123"
         id="path871"
         sodipodi:nodetypes="ccc" />
      <path
         style="fill:none;stroke:#ffffff;stroke-width:2.50025px;stroke-linecap:butt;stroke-linejoin:miter;stroke-opacity:1"
         d="m 307.5056,186.95655 c -1.86018,-11.63894 -3.05539,-23.0404 -12.98004,-37.55951 -0.60374,15.60565 -1.71022,16.63036 -2.90206,15.1801 -11.05377,-17.75235 -19.03608,-25.77844 -26.56518,-32.36933 4.70591,18.4076 3.82852,24.85097 0.2233,25.44899"
         id="path873"
         sodipodi:nodetypes="ccccc" />
      <path
         style="fill:none;stroke:#ffffff;stroke-width:2.50025px;stroke-linecap:butt;stroke-linejoin:miter;stroke-opacity:1"
         d="m 231.12633,146.94144 -50.89798,-17.85895 29.46724,20.5378 c -28.33288,-2.77476 -56.17984,-2.14807 -82.15113,11.6083 74.12241,6.25062 36.24829,12.50126 39.28968,18.75189 -64.65009,18.74229 -86.819163,18.01413 -94.6524,10.71537 11.020701,17.80515 23.20896,27.43737 36.61083,28.57431 -18.751886,2.75536 -37.503777,8.42391 -56.255667,27.68137 H 85.57595 c -51.319,31.46364 -50.752057,36.98432 -56.255673,45.54028 14.533619,-5.3065 25.025312,-6.57108 27.68136,0 -22.386036,12.23722 -23.504973,27.51261 -30.360202,41.96853 10.491916,-13.91359 18.615818,-11.25109 26.788415,-8.92948 -1.398254,7.23035 -8.98404,16.36456 -41.075571,33.03899 l 31.253148,-0.893 c -15.868976,24.98557 -22.999895,23.75701 -32.146093,28.57431 l 62.422934,5.28186"
         id="path875"
         sodipodi:nodetypes="ccccccccccccccccc" />
      <path
         style="fill:none;stroke:#ffffff;stroke-width:2.50025px;stroke-linecap:butt;stroke-linejoin:miter;stroke-opacity:1"
         d="m 314.13539,225.1568 c 5.72843,-7.71418 12.38765,-12.86868 21.46789,-11.36537 l 0.94712,0.63143"
         id="path877"
         sodipodi:nodetypes="ccc" />
      <path
         style="fill:none;stroke:#ffffff;stroke-width:2.50025px;stroke-linecap:butt;stroke-linejoin:miter;stroke-opacity:1"
         d="m 328.65778,239.9949 c 4.9421,-4.80704 4.59109,-11.37844 21.15221,-12.31247"
         id="path879"
         sodipodi:nodetypes="cc" />
      <path
         style="fill:none;stroke:#ffffff;stroke-width:2.50025px;stroke-linecap:butt;stroke-linejoin:miter;stroke-opacity:1"
         d="m 346.65294,255.1487 c 2.62267,-6.65563 6.24683,-12.49187 17.99517,-11.68105"
         id="path881"
         sodipodi:nodetypes="cc" />
      <path
         style="fill:none;stroke:#ffffff;stroke-width:2.50025px;stroke-linecap:butt;stroke-linejoin:miter;stroke-opacity:1"
         d="m 363.70099,265.25126 c 2.36377,-4.7072 3.79434,-10.46425 12.62817,-7.89262"
         id="path883"
         sodipodi:nodetypes="cc" />
      <path
         style="fill:none;stroke:#ffffff;stroke-width:2.50025px;stroke-linecap:butt;stroke-linejoin:miter;stroke-opacity:1"
         d="m 377.59198,275.66951 c 1.30655,-4.42106 2.54472,-8.90196 10.41825,-7.57691"
         id="path885"
         sodipodi:nodetypes="cc" />
      <path
         style="fill:none;stroke:#ffffff;stroke-width:2.50025px;stroke-linecap:butt;stroke-linejoin:miter;stroke-opacity:1"
         d="m 390.85157,282.93073 c 1.36206,-1.42367 0.34511,-4.03684 6.31409,-3.15705"
         id="path887"
         sodipodi:nodetypes="cc" />
      <path
         style="fill:none;stroke:#ffffff;stroke-width:2.50025px;stroke-linecap:butt;stroke-linejoin:miter;stroke-opacity:1"
         d="M 286.03768,193.27063 C 233.36567,159.88118 229.55457,125.6892 231.73651,70.777292"
         id="path889"
         sodipodi:nodetypes="cc" />
      <path
         style="fill:none;stroke:#ffffff;stroke-width:2.50025px;stroke-linecap:butt;stroke-linejoin:miter;stroke-opacity:1"
         d="m 335.36651,209.7662 c 21.67479,-9.21411 37.53653,-59.11948 56.04382,-90.50612 v 0"
         id="path891"
         sodipodi:nodetypes="ccc" />
    </g>
  </g>
</svg>
